# xmcd
#
# Track frame offsets:
#	150
#	16387
#	30726
#	45480
#	63845
#	82557
#	99544
#	115191
#	132502
#	146805
#	160287
#	175215
#	188790
#	204161
#	222110
#	235836
#	252646
#	265930
#
# Disc length: 3731 seconds
#
# Revision: 1
# Processed by: cddbd v1.5.2PL0 Copyright (c) Steve Scherf et al.
# Submitted via: audiograbber 1.83.01
#
DISCID=f50e9112
DTITLE=Various Artist - CDX 625
DYEAR=2015
DGENRE=Country
TTITLE0=Keith Urban - Break On Me
TTITLE1=Chris Lane - Fix
TTITLE2=Luke Bryan ft. Karen Fairchild - Home Alone Tonight
TTITLE3=Frankie Ballard - It All Started With A Beer (Radio Edit)
TTITLE4=Chris Stapleton - Nobody To Blame
TTITLE5=Don Henley ft. Trisha Yearwood - Words Can Break Your Heart
TTITLE6=Two Miles South - Anywhere But Here
TTITLE7=IMAJ - Colorblind
TTITLE8=Scott Brantley - Good Thing Going
TTITLE9=Robb Johnson - Hate Me Tonight
TTITLE10=Johnny Reed Foley - Hillbilly Rockstar
TTITLE11=Dick Barnes - Hug Um Up Country Girl
TTITLE12=Chris Chitsey - Just Don't Know It Yet
TTITLE13=P V Tanner - Love Song For My Father
TTITLE14=Smith and Wesley - Need Somebody Bad
TTITLE15=Ben Cesare - Radio Love Song
TTITLE16=John Keaton - She's Got My Heart
TTITLE17=Moses Rangel - We Ain't Missin' Nothin'
EXTD=
EXTT0=
EXTT1=
EXTT2=
EXTT3=
EXTT4=
EXTT5=
EXTT6=
EXTT7=
EXTT8=
EXTT9=
EXTT10=
EXTT11=
EXTT12=
EXTT13=
EXTT14=
EXTT15=
EXTT16=
EXTT17=
PLAYORDER=
